# AST/ASF file generated using VICON BodyLanguage
# -----------------------------------------------
:version 1.10
:name VICON
:units
  mass 1.0
  length 0.45
  angle deg
:documentation
   .ast/.asf automatically generated from VICON data using
   VICON BodyBuilder and BodyLanguage model FoxedUp or BRILLIANT.MOD
:root
   order TX TY TZ RX RY RZ
   axis XYZ
   position 0 0 0  
   orientation 0 0 0 
:bonedata
  begin
     id 1 
     name lhipjoint
     direction 0.523584 -0.783993 0.333487 
     length 2.44404 
     axis 0 0 0  XYZ
  end
  begin
     id 2 
     name lfemur
     direction 0.34202 -0.939693 0  
     length 7.29523  
     axis 0 0 20  XYZ
    dof rx ry rz
    limits (-160.0 20.0)
           (-70.0 70.0)
           (-60.0 70.0)
  end
  begin
     id 3 
     name ltibia
     direction 0.34215 -0.939645 0   
     length 7.81194   
     axis 0 0 20   XYZ
    dof rx
    limits (-10.0 170.0)
  end
  begin
     id 4 
     name lfoot
     direction 0.0941847 -0.25877 0.961336   
     length 2.41437   
     axis -90 7.62852e-016 20   XYZ
    dof rx rz
    limits (-45.0 90.0)
           (-70.0 20.0)
  end
  begin
     id 5 
     name ltoes
     direction 1.53526e-011 -4.21768e-011 1   
     length 1.2048   
     axis -90 7.62852e-016 20   XYZ
    dof rx
    limits (-90.0 20.0)
  end
  begin
     id 6 
     name rhipjoint
     direction -0.46599 -0.814191 0.346332   
     length 2.35339  
     axis 0 0 0  XYZ 
  end
  begin
     id 7 
     name rfemur
     direction -0.34202 -0.939693 0   
     length 7.34966   
     axis 0 0 -20   XYZ
    dof rx ry rz
    limits (-160.0 20.0)
           (-70.0 70.0)
           (-70.0 60.0)
  end
  begin
     id 8 
     name rtibia
     direction -0.34202 -0.939693 0   
     length 7.89934   
     axis 0 0 -20   XYZ
    dof rx
    limits (-10.0 170.0)
 end
 begin
     id 9 
     name rfoot
     direction -0.0975468 -0.268008 0.958466   
     length 2.27725  
     axis -90 -7.62852e-016 -20   XYZ
    dof rx rz
    limits (-45.0 90.0)
           (-20.0 70.0)
  end
  begin
     id 10 
     name rtoes
     direction -1.53563e-011 -4.22022e-011 1   
     length 1.13683   
     axis -90 -7.62852e-016 -20   XYZ
    dof rx
    limits (-90.0 20.0)
  end
  begin
     id 11 
     name lowerback
     direction -0.00456414 0.999242 -0.0386661   
     length 2.16968   
     axis 0 0 0   XYZ
    dof rx ry rz
    limits (-20.0 45.0)
           (-30.0 30.0)
           (-30.0 30.0)
  end
  begin
     id 12 
     name upperback
     direction 0.0297078 0.998988 0.0337799   
     length 2.15674   
     axis 0 0 0   XYZ
    dof rx ry rz
    limits (-20.0 45.0)
           (-30.0 30.0)
           (-30.0 30.0)
  end
  begin
     id 13 
     name thorax
     direction 0.0309305 0.998202 0.0513506   
     length 2.16319   
     axis 0 0 0   XYZ
    dof rx ry rz
    limits (-20.0 45.0)
           (-30.0 30.0)
           (-30.0 30.0)
  end
  begin
     id 14 
     name lowerneck
     direction -0.103039 0.983474 0.148872   
     length 1.64318   
     axis 0 0 0   XYZ
    dof rx ry rz
    limits (-20.0 45.0)
           (-30.0 30.0)
           (-30.0 30.0)
  end
  begin
     id 15 
     name upperneck
     direction 0.128124 0.971079 -0.201469   
     length 1.68242   
     axis 0 0 0   XYZ
    dof rx ry rz
    limits (-20.0 45.0)
           (-30.0 30.0)
           (-30.0 30.0)
  end
  begin
     id 16
     name head
     direction 0.0496365 0.994919 -0.0875941  
     length 1.70108  
     axis 0 0 0   XYZ
    dof rx ry rz
    limits (-20.0 45.0)
           (-30.0 30.0)
           (-30.0 30.0)
  end
  begin
     id 17 
     name lclavicle
     direction 0.887148 0.430222 -0.166967  
     length 3.25763  
     axis 0 0 0   XYZ
    dof ry rz
    limits (-20.0 10.0)
           (0.0 20.0)
  end
  begin
     id 18 
     name lhumerus
     direction 1 -4.48962e-011 1.92156e-027   
     length 5.10755   
     axis 180 -30 -90   XYZ
    dof rx ry rz
    limits (-60.0 90.0)
           (-90.0 90.0)
           (-90.0 90.0)
  end
  begin
     id 19
     name lradius
     direction 1 -4.48958e-011 7.10963e-027   
     length 3.36253   
     axis 180 -30 -90   XYZ
    dof rx
    limits (-10.0 170.0)
  end
  begin
     id 20
     name lwrist
     direction 1 -4.48946e-011 1.82396e-026   
     length 1.68127   
     axis -1.15222e-014 90 90   XYZ
    dof ry
    limits (-180.0 0.0)
 end
  begin
     id 21 
     name lhand
     direction 1 -4.48919e-011 3.64759e-026   
     length 0.619088   
     axis -2.32787e-014 90 90   XYZ
    dof rx rz
    limits (-90.0 90.0)
           (-45.0 45.0)
  end
  begin
     id 22 
     name lfingers
     direction 1 -4.49012e-011 7.29744e-026   
     length 0.499125   
     axis -4.6558e-014 90 90   XYZ
    dof rx
    limits (0.0 90.0)
  end
  begin
     id 23
     name lthumb
     direction 0.707107 -6.35028e-011 0.707107   
     length 0.716646   
     axis -90 45 3.78391e-014   XYZ
    dof rx rz
    limits (-45.0 45.0)
           (-45.0 45.0)
  end
  begin
     id 24 
     name rclavicle
     direction -0.82886 0.533198 -0.169384   
     length 3.20647  
     axis 0 0 0   XYZ 
    dof ry rz
    limits (-10.0 20.0)
           (-20.0 0.0)
  end
  begin
     id 25 
     name rhumerus
     direction -1 -4.48973e-011 3.06863e-027  
     length 5.27387   
     axis 180 30 90   XYZ
    dof rx ry rz
    limits (-90.0 60.0)
           (-90.0 90.0)
           (-90.0 90.0)
  end
  begin
     id 26 
     name rradius
     direction -1 -4.48988e-011 9.4797e-027   
     length 3.40144   
     axis 180 30 90   XYZ
    dof rx
    limits (-10.0 170.0)
  end
  begin
     id 27 
     name rwrist
     direction -1 -4.48897e-011 1.82366e-026   
     length 1.70072   
     axis -1.15222e-014 -90 -90   XYZ
    dof ry
    limits (-180.0 0.0)
  end
  begin
     id 28
     name rhand
     direction -1 -4.48965e-011 3.64815e-026   
     length 0.742821   
     axis -2.32787e-014 -90 -90   XYZ
    dof rx rz
    limits (-90.0 90.0)
           (-45.0 45.0)
  end
  begin
     id 29
     name rfingers
     direction -1 -4.49016e-011 7.29754e-026   
     length 0.598881   
     axis -4.6558e-014 -90 -90   XYZ
    dof rx
    limits (0.0 90.0)
  end
  begin
     id 30
     name rthumb
     direction -0.707107 -6.3488e-011 0.707107   
     length 0.859877   
     axis -90 -45 -3.78391e-014   XYZ
    dof rx rz
    limits (-45.0 45.0)
           (-45.0 45.0)
  end
:hierarchy
  begin
    root lhipjoint rhipjoint lowerback
    lhipjoint lfemur
    lfemur ltibia
    ltibia lfoot
    lfoot ltoes
    rhipjoint rfemur
    rfemur rtibia
    rtibia rfoot
    rfoot rtoes
    lowerback upperback
    upperback thorax
    thorax lowerneck lclavicle rclavicle
    lowerneck upperneck
    upperneck head
    lclavicle lhumerus
    lhumerus lradius
    lradius lwrist
    lwrist lhand lthumb
    lhand lfingers
    rclavicle rhumerus
    rhumerus rradius
    rradius rwrist
    rwrist rhand rthumb
    rhand rfingers
  end

#!OML:ASF F:\Work\Patient Classification 1\justin\Session 1\justin.ASF
:FULLY-SPECIFIED
:DEGREES
3136
root 0.556205 18.4876 -4.31266 3.99233 6.37374 -1.60478
lowerback 9.17091 1.94854 2.98795
upperback 0.992339 2.97523 1.88758
thorax -4.05701 1.43862 -0.089259
lowerneck -17.2966 -7.7619 -16.6078
upperneck 16.1079 -8.48176 10.7007
head 9.09565 -3.97315 5.24827
rclavicle -4.07509e-015 0
rhumerus 53.3332 5.07042 -41.8658
rradius 60.3188
rwrist 13.9553
rhand -12.2002 9.40263
rfingers 7.12502
rthumb 13.864 -20.1153
lclavicle -4.07509e-015 0
lhumerus 11.6112 -45.1916 69.7192
lradius 78.4718
lwrist -14.4957
lhand -7.83352 32.1629
lfingers 7.12502
lthumb 18.069 61.3436
rfemur -5.86168 0.358943 22.3549
rtibia 17.7299
rfoot -11.5104 -6.12168
rtoes -14.7308
lfemur -6.60983 2.95985 -17.0784
ltibia 17.4332
lfoot -10.5171 -1.47498
ltoes -13.2587
3137
root 0.550942 18.4891 -4.31948 3.99848 5.97415 -1.79603
lowerback 9.3052 1.85658 2.97327
upperback 0.911168 2.86263 1.93573
thorax -4.22222 1.38046 -0.0239983
lowerneck -17.2929 -7.53189 -16.3812
upperneck 16.1181 -8.23025 10.7284
head 9.05129 -3.83949 5.26161
rclavicle -6.4605e-015 -2.62396e-014
rhumerus 53.1319 5.28029 -41.8163
rradius 62.9122
rwrist 13.4344
rhand -11.1431 8.47772
rfingers 7.12502
rthumb 14.8826 -20.9677
lclavicle -6.4605e-015 -2.62396e-014
lhumerus 11.3695 -44.8539 70.1784
lradius 76.0472
lwrist -13.7414
lhand -7.92561 31.5472
lfingers 7.12502
lthumb 17.9804 60.736
rfemur -5.78232 0.76893 22.6069
rtibia 17.4268
rfoot -11.3358 -6.23328
rtoes -14.5495
lfemur -6.81545 3.07368 -16.8575
ltibia 17.7785
lfoot -10.6254 -1.23374
ltoes -13.6273
3138
root 0.548853 18.4939 -4.32207 3.95089 5.50101 -2.0417
lowerback 9.38963 1.79459 2.97565
upperback 0.930291 2.78962 2.06629
thorax -4.25747 1.34491 0.116607
lowerneck -17.5779 -7.36749 -16.3463
upperneck 16.3047 -7.99022 10.7975
head 9.13181 -3.71246 5.31695
rclavicle 1.96797e-014 -2.06736e-014
rhumerus 53.0237 5.45278 -41.7362
rradius 65.4424
rwrist 13.0034
rhand -10.1993 7.7508
rfingers 7.12502
rthumb 15.7917 -21.6251
lclavicle 1.96797e-014 -2.06736e-014
lhumerus 11.2148 -44.3216 70.709
lradius 73.6852
lwrist -13.3379
lhand -8.23926 30.7644
lfingers 7.12502
lthumb 17.6786 59.9807
rfemur -5.74042 1.15684 22.9045
rtibia 17.2861
rfoot -11.1816 -6.28616
rtoes -15.0508
lfemur -6.98086 3.20799 -16.5958
ltibia 18.1253
lfoot -10.7152 -0.918584
ltoes -14.2548
3139
root 0.551082 18.4981 -4.31725 3.90762 5.16928 -2.12871
lowerback 9.46323 1.6671 2.88843
upperback 0.909411 2.61823 2.12859
thorax -4.3302 1.26109 0.248957
lowerneck -17.818 -7.19622 -16.2444
upperneck 16.5207 -7.75443 10.7997
head 9.20922 -3.59158 5.33844
rclavicle 1.10325e-014 -3.49861e-014
rhumerus 52.7709 5.71199 -41.8813
rradius 67.862
rwrist 13.0825
rhand -9.38861 7.18922
rfingers 7.12502
rthumb 16.5723 -22.1232
lclavicle 1.10325e-014 -3.49861e-014
lhumerus 10.9464 -43.6874 71.224
lradius 71.4311
lwrist -13.1591
lhand -8.49913 30.1444
lfingers 7.12502
lthumb 17.4285 59.3831
rfemur -5.71411 1.23451 22.9923
rtibia 17.2801
rfoot -11.2653 -6.12521
rtoes -14.4355
lfemur -7.036 3.26367 -16.5203
ltibia 18.3433
lfoot -10.7956 -0.672298
ltoes -14.516
3140
root 0.550672 18.4955 -4.31936 3.94244 4.93916 -2.08858
lowerback 9.61827 1.48581 2.71937
upperback 0.863618 2.36619 2.09094
thorax -4.47335 1.13716 0.331684
lowerneck -18.3055 -7.00635 -15.9201
upperneck 16.8139 -7.49498 10.6902
head 9.34011 -3.4504 5.2853
rclavicle -2.88238e-014 6.36111e-015
rhumerus 52.4987 5.94939 -42.3004
rradius 70.3514
rwrist 13.3582
rhand -8.12006 6.4851
rfingers 7.12502
rthumb 17.7933 -22.7209
lclavicle -2.88238e-014 6.36111e-015
lhumerus 11.442 -43.1798 70.9872
lradius 69.1258
lwrist -12.6201
lhand -8.63834 30.0134
lfingers 7.12502
lthumb 17.2945 59.2639
rfemur -5.80611 1.24973 22.9443
rtibia 17.36
rfoot -11.5234 -5.94034
rtoes -12.3614
lfemur -7.07717 3.2944 -16.5803
ltibia 18.3818
lfoot -10.8175 -0.470283
ltoes -14.7152
3141
root 0.549532 18.4876 -4.31697 3.94758 4.79589 -1.94962
lowerback 9.49207 1.27799 2.37579
upperback 0.98542 2.04549 2.11067
thorax -4.29208 0.987764 0.591266
lowerneck -18.81 -6.78451 -15.6625
upperneck 17.035 -7.16478 10.5707
head 9.44275 -3.28054 5.24965
rclavicle 2.01766e-014 7.95139e-015
rhumerus 52.4155 6.18456 -42.6306
rradius 72.9378
rwrist 13.2661
rhand -6.47413 5.66812
rfingers 7.12502
rthumb 19.3765 -23.3865
lclavicle 2.01766e-014 7.95139e-015
lhumerus 12.4748 -42.6207 70.4308
lradius 66.8236
lwrist -11.806
lhand -8.97607 29.7401
lfingers 7.12502
lthumb 16.9695 59.0188
rfemur -5.92634 1.1464 22.7932
rtibia 17.6212
rfoot -11.6659 -5.76676
rtoes -12.0093
lfemur -6.91526 3.3121 -16.7305
ltibia 18.2531
lfoot -10.8405 -0.370328
ltoes -14.9274
3142
root 0.547308 18.4823 -4.30406 3.90776 4.77847 -1.72166
lowerback 9.27064 1.02921 1.89678
upperback 1.06156 1.65762 2.1598
thorax -4.106 0.806385 0.965909
lowerneck -18.8487 -6.52408 -15.5286
upperneck 17.1115 -6.81951 10.4817
head 9.41697 -3.12041 5.25038
rclavicle -1.07344e-014 5.56597e-015
rhumerus 52.1449 6.66429 -42.8369
rradius 75.5082
rwrist 13.0081
rhand -5.11294 5.21817
rfingers 7.12502
rthumb 20.6849 -23.6995
lclavicle -1.07344e-014 5.56597e-015
lhumerus 12.8802 -41.7803 70.4267
lradius 64.7099
lwrist -11.1618
lhand -8.51798 29.2605
lfingers 7.12502
lthumb 17.4104 58.5008
rfemur -5.99154 0.887501 22.5713
rtibia 17.9729
rfoot -11.5904 -5.6943
rtoes -14.1938
lfemur -6.60759 3.33671 -16.9503
ltibia 18.0333
lfoot -10.8757 -0.425985
ltoes -14.7841
3143
root 0.556282 18.4826 -4.30892 4.10135 3.82352 -1.6057
lowerback 9.38367 1.05746 1.60602
upperback 0.777282 1.67406 2.09792
thorax -4.47194 0.816351 1.05857
lowerneck -18.5347 -6.17516 -15.3285
upperneck 17.1935 -6.43214 10.4145
head 9.32272 -2.94378 5.25763
rclavicle -2.19657e-014 -7.95139e-016
rhumerus 51.4694 7.53482 -43.1224
rradius 78.0425
rwrist 12.7684
rhand -4.28076 4.72025
rfingers 7.12502
rthumb 21.4843 -24.1083
lclavicle -2.19657e-014 -7.95139e-016
lhumerus 12.7274 -41.0158 70.6981
lradius 62.7196
lwrist -10.6136
lhand -6.98876 29.4132
lfingers 7.12502
lthumb 18.8816 58.5168
rfemur -6.47194 0.996596 22.3227
rtibia 18.2663
rfoot -11.5052 -5.04549
rtoes -14.7479
lfemur -6.61355 3.65154 -17.2159
ltibia 17.82
lfoot -10.7706 0.227026
ltoes -14.7892
3144
root 0.554538 18.4782 -4.30597 4.11293 2.97098 -1.75059
lowerback 9.62181 1.04118 1.44627
upperback 0.535088 1.65087 2.1324
thorax -4.86373 0.806272 1.18159
lowerneck -18.0548 -5.82821 -15.1336
upperneck 17.1535 -6.06732 10.3661
head 9.16149 -2.77834 5.26597
rclavicle -2.51463e-014 -1.15295e-014
rhumerus 50.7101 8.54109 -43.4477
rradius 80.4762
rwrist 12.6343
rhand -4.13745 4.26549
rfingers 7.12502
rthumb 21.622 -24.5473
lclavicle -2.51463e-014 -1.15295e-014
lhumerus 12.603 -40.2974 70.8569
lradius 60.8769
lwrist -10.0201
lhand -6.30452 29.5991
lfingers 7.12502
lthumb 19.5396 58.6372
rfemur -6.63832 1.36273 22.4372
rtibia 18.5039
rfoot -11.7383 -4.66612
rtoes -13.3454
lfemur -6.43865 3.98184 -17.1033
ltibia 17.6159
lfoot -10.6637 0.74268
ltoes -15.1272
3145
root 0.554753 18.4751 -4.30149 4.1058 2.36138 -1.89996
lowerback 9.63486 0.974292 1.34132
upperback 0.61356 1.55156 2.19344
thorax -4.79235 0.760374 1.31811
lowerneck -18.2267 -5.65513 -14.92
upperneck 17.0983 -5.83476 10.266
head 9.12966 -2.66052 5.22599
rclavicle 8.05078e-015 1.47101e-014
rhumerus 50.2457 9.14752 -43.7356
rradius 82.9132
rwrist 12.9871
rhand -3.95145 4.0804
rfingers 7.12502
rthumb 21.8006 -24.7117
lclavicle 8.05078e-015 1.47101e-014
lhumerus 13.3938 -39.4439 70.4232
lradius 59.0909
lwrist -9.27673
lhand -6.68166 29.2882
lfingers 7.12502
lthumb 19.177 58.3627
rfemur -6.70467 1.52224 22.5734
rtibia 18.6838
rfoot -11.7414 -4.35944
rtoes -13.8517
lfemur -6.27191 4.20212 -16.9619
ltibia 17.5166
lfoot -10.7118 1.09548
ltoes -15.3652
3146
root 0.558755 18.4679 -4.30046 4.08704 2.12834 -1.95241
lowerback 9.61117 0.777888 1.26198
upperback 0.850896 1.27648 2.23452
thorax -4.52967 0.627138 1.44411
lowerneck -19.1976 -5.52921 -14.6056
upperneck 17.2904 -5.57419 10.0893
head 9.31771 -2.51362 5.14634
rclavicle 2.98177e-015 3.18055e-014
rhumerus 50.0197 9.56725 -43.9538
rradius 85.4378
rwrist 13.4314
rhand -3.25343 3.5979
rfingers 7.12502
rthumb 22.4707 -25.1148
lclavicle 2.98177e-015 3.18055e-014
lhumerus 14.7984 -38.5816 69.5219
lradius 57.3312
lwrist -8.59879
lhand -7.43954 28.7437
lfingers 7.12502
lthumb 18.448 57.8889
rfemur -6.72267 1.376 22.6251
rtibia 18.7323
rfoot -11.7125 -4.13129
rtoes -13.9699
lfemur -6.10706 4.234 -16.9025
ltibia 17.5159
lfoot -10.9148 1.21463
ltoes -15.549
3147
root 0.561908 18.4618 -4.29523 4.02729 1.85591 -2.10835
lowerback 9.70836 0.606273 1.25888
upperback 0.872932 1.05376 2.31199
thorax -4.55876 0.517688 1.55575
lowerneck -19.5916 -5.2921 -14.3776
upperneck 17.4886 -5.24902 10.0194
head 9.40292 -2.34699 5.13453
rclavicle 2.38542e-015 -2.38542e-015
rhumerus 49.4415 10.3975 -44.1098
rradius 87.8295
rwrist 13.4465
rhand -2.90303 3.15764
rfingers 7.12502
rthumb 22.807 -25.514
lclavicle 2.38542e-015 -2.38542e-015
lhumerus 15.7553 -37.868 68.8903
lradius 55.7034
lwrist -8.15902
lhand -8.11827 28.2037
lfingers 7.12502
lthumb 17.795 57.4094
rfemur -6.67463 1.30642 22.7957
rtibia 18.7312
rfoot -12.0401 -3.91336
rtoes -11.2774
lfemur -5.89482 4.3289 -16.7142
ltibia 17.5497
lfoot -11.1427 1.29002
ltoes -15.5259
3148
root 0.563208 18.4618 -4.28536 4.05081 1.27753 -2.39311
lowerback 9.74168 0.55325 1.30803
upperback 0.764382 0.997441 2.413
thorax -4.69089 0.489599 1.64088
lowerneck -19.5567 -5.04073 -14.1912
upperneck 17.624 -4.96356 9.99728
head 9.39836 -2.20663 5.14163
rclavicle -2.28602e-015 -1.70955e-014
rhumerus 48.5814 11.4693 -44.2168
rradius 89.9401
rwrist 13.3595
rhand -3.49106 3.40298
rfingers 7.12502
rthumb 22.2426 -25.3371
lclavicle -2.28602e-015 -1.70955e-014
lhumerus 16.6166 -37.1736 68.3256
lradius 54.1608
lwrist -7.70447
lhand -8.55479 27.609
lfingers 7.12502
lthumb 17.375 56.8524
rfemur -6.70473 1.46663 23.0853
rtibia 18.7644
rfoot -12.0045 -3.60811
rtoes -10.259
lfemur -5.71649 4.58773 -16.4087
ltibia 17.4777
lfoot -11.2677 1.5386
ltoes -15.392
